<svg width="32" height="32" fill="none" viewBox="0 0 32 32">
  <g>
    <path fill="#fff" d="M16 2.5c-7.6 0-13.8 6.2-13.8 13.8 0 6 3.9 11 9.2 12.8.7.1 1-.3 1-.7v-2.8c-3.8.8-4.6-1.6-4.6-1.6-.6-1.5-1.5-1.9-1.5-1.9-1.2-.9.1-.9.1-.9 1.3.1 2 1.3 2 1.3 1.1 2 2.9 1.5 3.6 1.1.1-.8.4-1.5.7-1.9-3-.3-6.2-1.5-6.2-6.7 0-1.5.5-2.7 1.3-3.7-.1-.3-.6-1.7.1-3.5 0 0 1.1-.3 3.7 1.3a12.7 12.7 0 0 1 6.8 0c2.6-1.6 3.7-1.3 3.7-1.3.7 1.8.2 3.2.1 3.5.8 1 1.3 2.2 1.3 3.7 0 5.2-3.2 6.4-6.2 6.7.4.3.7.9.7 1.9v2.8c0 .4.3.8 1 .7A13.9 13.9 0 0 0 29.8 16.3C29.8 8.7 23.6 2.5 16 2.5z"/>
  </g>
</svg>